<svg xmlns="http://www.w3.org/2000/svg" xml:space="preserve" style="fill-rule:evenodd;clip-rule:evenodd;stroke-linejoin:round;stroke-miterlimit:2" viewBox="0 0 1054 586"><path d="M86 757h744v43H86z" style="fill:url(#a)" transform="matrix(1.13844 0 0 1.74419 5.094 -824.411)"/><path d="M34.065 27H5.339L0 2.651l20.697 9.533L18.198 0l30.088 21.463L62 16.123 56.574 27z" style="fill:url(#b)" transform="translate(15 15)scale(16.51616)"/><path d="m61.999 16.123-6.963 2.713 4.274 2.698z" style="fill:#fff;fill-opacity:.2;fill-rule:nonzero" transform="translate(15 15)scale(16.51616)"/><path d="M86 757h744v43H86z" style="fill:url(#c)" transform="matrix(1.13844 0 0 1.74419 5.094 -824.411)"/><path d="M34.065 27H5.339L0 2.651l20.697 9.533L18.198 0l30.088 21.463L62 16.123 56.574 27z" style="fill:url(#d)" transform="translate(15 15)scale(16.51616)"/><path d="m61.999 16.123-6.963 2.713 4.274 2.698z" style="fill:#fff;fill-opacity:.2;fill-rule:nonzero" transform="translate(15 15)scale(16.51616)"/><defs><linearGradient id="a" x1="0" x2="1" y1="0" y2="0" gradientTransform="matrix(744 0 0 43 86 778.5)" gradientUnits="userSpaceOnUse"><stop offset="0" style="stop-color:#f65757;stop-opacity:1"/><stop offset="1" style="stop-color:#8a6fc9;stop-opacity:1"/></linearGradient><linearGradient id="b" x1="0" x2="1" y1="0" y2="0" gradientTransform="matrix(61.9999 0 0 27.0001 0 13.5)" gradientUnits="userSpaceOnUse"><stop offset="0" style="stop-color:#f65757;stop-opacity:1"/><stop offset="1" style="stop-color:#8a6fc9;stop-opacity:1"/></linearGradient><linearGradient id="c" x1="0" x2="1" y1="0" y2="0" gradientTransform="matrix(744 0 0 43 86 778.5)" gradientUnits="userSpaceOnUse"><stop offset="0" style="stop-color:#f65757;stop-opacity:1"/><stop offset="1" style="stop-color:#8a6fc9;stop-opacity:1"/></linearGradient><linearGradient id="d" x1="0" x2="1" y1="0" y2="0" gradientTransform="matrix(61.9999 0 0 27.0001 0 13.5)" gradientUnits="userSpaceOnUse"><stop offset="0" style="stop-color:#f65757;stop-opacity:1"/><stop offset="1" style="stop-color:#8a6fc9;stop-opacity:1"/></linearGradient></defs></svg>